<svg width="116" height="68" viewBox="0 0 116 68" fill="none" xmlns="http://www.w3.org/2000/svg">
<path d="M100.782 0.999908C86.7616 20.7735 72.7415 40.553 58.7215 60.3266C44.7074 40.547 30.6874 20.7735 16.6674 0.999908C22.3968 0.999908 28.1263 0.999908 33.8617 0.999908C42.1523 11.9478 50.4369 22.9017 58.7275 33.8496C67.1203 22.9017 75.507 11.9478 83.8998 0.999908C89.5271 0.999908 95.1543 0.999908 100.782 0.999908Z" fill="white" stroke="black" stroke-width="0.25" stroke-miterlimit="10" stroke-linecap="round" stroke-linejoin="round"/>
<path d="M100.782 0.999908C105.693 9.29049 110.605 17.5751 115.517 25.8656H100.782L92.7976 13.4328" fill="white"/>
<path d="M100.782 0.999908C105.693 9.29049 110.605 17.5751 115.517 25.8656H100.782L92.7976 13.4328" stroke="black" stroke-width="0.25" stroke-miterlimit="10" stroke-linecap="round" stroke-linejoin="round"/>
<path d="M24.6453 13.4328L16.6673 25.8656H1L16.6673 0.999908" fill="white"/>
<path d="M24.6453 13.4328L16.6673 25.8656H1L16.6673 0.999908" stroke="black" stroke-width="0.25" stroke-miterlimit="10" stroke-linecap="round" stroke-linejoin="round"/>
<path d="M1 25.8657L37.6974 66.9999L16.6673 25.8657" fill="white"/>
<path d="M1 25.8657L37.6974 66.9999L16.6673 25.8657" stroke="black" stroke-width="0.25" stroke-miterlimit="10" stroke-linecap="round" stroke-linejoin="round"/>
<path d="M100.782 25.8657L79.7514 66.3867L115.517 25.8657" fill="white"/>
<path d="M100.782 25.8657L79.7514 66.3867L115.517 25.8657" stroke="black" stroke-width="0.25" stroke-miterlimit="10" stroke-linecap="round" stroke-linejoin="round"/>
</svg>
