<svg xmlns="http://www.w3.org/2000/svg" xmlns:xlink="http://www.w3.org/1999/xlink" version="1.1" width="1000" height="1000" viewBox="0 0 1000 1000" xml:space="preserve">
<desc>Created with Fabric.js 3.5.0</desc>
<defs>
</defs>
<rect x="0" y="0" width="100%" height="100%" fill="#ffffff"/>
<g transform="matrix(4.5422 0 0 4.5422 509.5016 527.0797)" id="256282">
<g style="" vector-effect="non-scaling-stroke">
		<g transform="matrix(0.096 0 0 0.096 4.9176 28.7525)" id="_2158448102688">
<path style="stroke: none; stroke-width: 1; stroke-dasharray: none; stroke-linecap: butt; stroke-dashoffset: 0; stroke-linejoin: miter; stroke-miterlimit: 4; is-custom-font: none; font-file-url: none; fill: rgb(0,174,255); fill-rule: evenodd; opacity: 1;" transform=" translate(-1851.225, -2099.505)" d="M 1409.59 2355.66 l 1136.6 0 l 0 -256.16 c 0 -141.47 -113.42 -256.15 -253.32 -256.15 l -883.28 0 l -253.33 0 l 0 256.15 c 0 141.47 113.42 256.16 253.33 256.16 z" stroke-linecap="round"/>
</g>
		<g transform="matrix(0.096 0 0 0.096 -6.766 -31.3699)" id="_2158448102688">
<path style="stroke: none; stroke-width: 1; stroke-dasharray: none; stroke-linecap: butt; stroke-dashoffset: 0; stroke-linejoin: miter; stroke-miterlimit: 4; is-custom-font: none; font-file-url: none; fill: rgb(18,47,69); fill-rule: evenodd; opacity: 1;" transform=" translate(-1729.52, -1473.23)" d="M 1156.26 1730.43 l 1145.2 0 l 0 -231.9 c 0.87 -8.66 1.32 -17.46 1.32 -26.34 c 0 -8.89 -0.44 -17.68 -1.32 -26.35 c -11.96 -118.26 -103.46 -212.71 -219.53 -227.72 c -10.63 -1.37 -21.47 -2.09 -32.47 -2.09 c -10.99 0 -21.84 0.71 -32.46 2.09 l -860.73 0 l 0 512.31 z" stroke-linecap="round"/>
</g>
</g>
</g>
</svg>